<?xml version="1.0" ?><svg viewBox="0 0 64 64" xmlns="http://www.w3.org/2000/svg"><title/><g id="Icons"><path d="M57,60H11a1,1,0,0,1,0-2H57a1,1,0,0,0,1-1V7a1,1,0,0,0-1-1H19a1,1,0,0,0-1,1V53a1,1,0,0,1-2,0V7a3,3,0,0,1,3-3H57a3,3,0,0,1,3,3V57A3,3,0,0,1,57,60Z" style="fill:#727172"/><path d="M11,60a7.009,7.009,0,0,1-7-7V16a3,3,0,0,1,3-3H17a1,1,0,0,1,1,1V53A7.009,7.009,0,0,1,11,60ZM7,15a1,1,0,0,0-1,1V53a5,5,0,0,0,10,0V15Z" style="fill:#727172"/><path d="M55,22H21a1,1,0,0,1-1-1V9a1,1,0,0,1,1-1H55a1,1,0,0,1,1,1V21A1,1,0,0,1,55,22ZM22,20H54V10H22Z" style="fill:#727172"/><path d="M55,56H41a1,1,0,0,1-1-1V41a1,1,0,0,1,1-1H55a1,1,0,0,1,1,1V55A1,1,0,0,1,55,56ZM42,54H54V42H42Z" style="fill:#727172"/><path d="M55,28H25a1,1,0,0,1,0-2H55a1,1,0,0,1,0,2Z" style="fill:#727172"/><path d="M55,32H21a1,1,0,0,1,0-2H55a1,1,0,0,1,0,2Z" style="fill:#727172"/><path d="M47,36H21a1,1,0,0,1,0-2H47a1,1,0,0,1,0,2Z" style="fill:#727172"/><path d="M37,44H25a1,1,0,0,1,0-2H37a1,1,0,0,1,0,2Z" style="fill:#727172"/><path d="M37,48H21a1,1,0,0,1,0-2H37a1,1,0,0,1,0,2Z" style="fill:#727172"/><path d="M33,52H21a1,1,0,0,1,0-2H33a1,1,0,0,1,0,2Z" style="fill:#727172"/><path d="M51,36a1,1,0,0,1-.38-.08,1.032,1.032,0,0,1-.33-.21A.99.99,0,0,1,50,35a.838.838,0,0,1,.08-.38,1.032,1.032,0,0,1,.21-.33,1.047,1.047,0,0,1,1.42,0,1.032,1.032,0,0,1,.21.33.99.99,0,0,1-.21,1.09,1.169,1.169,0,0,1-.33.21A1,1,0,0,1,51,36Z" style="fill:#727172"/><path d="M37,52a.99.99,0,0,1-1-1,.838.838,0,0,1,.08-.38,1.032,1.032,0,0,1,.21-.33,1.047,1.047,0,0,1,1.42,0,1.155,1.155,0,0,1,.21.33.99.99,0,0,1-.21,1.09,1.169,1.169,0,0,1-.33.21A1,1,0,0,1,37,52Z" style="fill:#727172"/></g></svg>